<?xml version="1.0" encoding="UTF-8" standalone="no"?>
<svg
   xmlns:dc="http://purl.org/dc/elements/1.1/"
   xmlns:cc="http://creativecommons.org/ns#"
   xmlns:rdf="http://www.w3.org/1999/02/22-rdf-syntax-ns#"
   xmlns:svg="http://www.w3.org/2000/svg"
   xmlns="http://www.w3.org/2000/svg"
   xmlns:sodipodi="http://sodipodi.sourceforge.net/DTD/sodipodi-0.dtd"
   xmlns:inkscape="http://www.inkscape.org/namespaces/inkscape"
   width="1em"
   height="1em"
   viewBox="0 0 16 16"
   class="bi bi-search"
   fill="currentColor"
   version="1.1"
   id="svg6"
   sodipodi:docname="search.svg"
   inkscape:version="1.0.1 (0767f8302a, 2020-10-17)">
  <metadata
     id="metadata12">
    <rdf:RDF>
      <cc:Work
         rdf:about="">
        <dc:format>image/svg+xml</dc:format>
        <dc:type
           rdf:resource="http://purl.org/dc/dcmitype/StillImage" />
      </cc:Work>
    </rdf:RDF>
  </metadata>
  <defs
     id="defs10" />
  <sodipodi:namedview
     pagecolor="#ffffff"
     bordercolor="#666666"
     borderopacity="1"
     objecttolerance="10"
     gridtolerance="10"
     guidetolerance="10"
     inkscape:pageopacity="0"
     inkscape:pageshadow="2"
     inkscape:window-width="1920"
     inkscape:window-height="1016"
     id="namedview8"
     showgrid="false"
     inkscape:zoom="54.375"
     inkscape:cx="8"
     inkscape:cy="7.3320653"
     inkscape:window-x="0"
     inkscape:window-y="27"
     inkscape:window-maximized="1"
     inkscape:current-layer="svg6" />
  <path
     fill-rule="evenodd"
     d="M10.442 10.442a1 1 0 0 1 1.415 0l3.85 3.85a1 1 0 0 1-1.414 1.415l-3.85-3.85a1 1 0 0 1 0-1.415z"
     id="path2" />
  <path
     fill-rule="evenodd"
     d="m 6.5400278,10.746285 c 1.4741551,0 2.1398941,-0.559645 2.7654619,-1.2154446 C 9.9689347,8.8353327 10.547804,7.9992583 10.573783,6.4360621 10.604064,4.6139858 10.059169,3.6526954 9.1077118,3.0360569 8.4564448,2.6139715 7.7009341,2.2642592 6.4666184,2.2642592 c -1.5426318,0 -2.2878416,0.4917609 -2.9488469,1.1576937 -0.6405682,0.6453434 -1.2206842,1.4408968 -1.2206842,2.9358321 0,1.3585114 0.4526028,2.2489961 0.9908754,2.9628149 0.6652789,0.8822461 1.5730093,1.4256851 3.2520651,1.4256851 z M 13,6.5 c 0,3.589853 -2.910149,6.499997 -6.5,6.499997 C 2.9101492,12.999997 0,10.089853 0,6.5 0,2.9101467 2.9101492,2.8217637e-6 6.5,2.8217637e-6 10.089851,2.8217637e-6 13,2.9101467 13,6.5 Z"
     id="path4"
     sodipodi:nodetypes="ssssssssssssss" />
  <ellipse
     style="fill:#000000;fill-opacity:0"
     id="path14"
     cx="1.2821648"
     cy="4.9951129"
     rx="3.7692564"
     ry="0.78737426" />
  <ellipse
     style="fill:#000000;fill-opacity:0"
     id="path16"
     cx="6.4217587"
     cy="5.8354192"
     rx="0.86983603"
     ry="1.0918" />
  <ellipse
     style="fill:#000000;fill-opacity:0"
     id="path18"
     cx="7.9787159"
     cy="5.0651293"
     rx="2.1925237"
     ry="2.4361413" />
  <ellipse
     style="fill:#000000;fill-opacity:0"
     id="path20"
     cx="5.11448"
     cy="7.6265073"
     rx="0.67171222"
     ry="0.12523684" />
  <ellipse
     style="fill:#000000;fill-opacity:0"
     id="path22"
     cx="3.4636922"
     cy="3.4608541"
     rx="0.70390511"
     ry="1.472056" />
  <path
     style="fill:#000000;fill-opacity:0"
     id="path26"
     sodipodi:type="arc"
     sodipodi:cx="6.3559804"
     sodipodi:cy="5.7353826"
     sodipodi:rx="3.9871924"
     sodipodi:ry="3.5106952"
     sodipodi:start="0"
     sodipodi:end="1.8098198"
     sodipodi:arc-type="slice"
     d="M 10.343173,5.7353826 A 3.9871924,3.5106952 0 0 1 8.8190942,8.4960862 3.9871924,3.5106952 0 0 1 5.4119967,9.1462674 L 6.3559804,5.7353826 Z" />
  <circle
     style="fill:#000000;fill-opacity:0"
     id="path28"
     sodipodi:type="arc"
     sodipodi:cx="4.222137"
     sodipodi:cy="11.49971"
     sodipodi:rx="0.61902106"
     sodipodi:ry="0.022770183"
     sodipodi:start="0"
     sodipodi:end="1.8098192"
     sodipodi:arc-type="slice"
     d="m 4.841158,11.49971 a 0.61902106,0.02277018 0 0 1 -0.2366166,0.01791 0.61902106,0.02277018 0 0 1 -0.5289598,0.0042 L 4.222137,11.49971 Z" />
</svg>
